<?xml version="1.0" encoding="UTF-8"?>
<svg id="Layer_1" xmlns="http://www.w3.org/2000/svg" xmlns:xlink="http://www.w3.org/1999/xlink" version="1.1" viewBox="0 0 360 102.9">
  <!-- Generator: Adobe Illustrator 29.3.1, SVG Export Plug-In . SVG Version: 2.1.0 Build 151)  -->
  <defs>
    <style>
      .st0 {
        fill: none;
      }

      .st1 {
        fill: #edc75d;
      }

      .st2 {
        fill: #ffea9e;
      }

      .st3 {
        fill: #cbedf9;
      }

      .st4 {
        fill: #92d6e9;
      }

      .st5 {
        fill: #fff;
      }

      .st6 {
        fill: #212552;
      }

      .st7 {
        display: none;
      }

      .st8 {
        clip-path: url(#clippath);
      }
    </style>
    <clipPath id="clippath">
      <path class="st0" d="M0,264.3h17.1c5.9,0,10.9,3.6,12.9,8.8,4.3-5,13.8-8.6,19.6-8.6h47.8c3.7-.1,7.2,1.4,9.8,4,1.3,1.3,2.3,2.9,3,4.6,8.4-5.7,18.4-8.8,28.8-8.8s26.6,5.3,36.3,15c1.9,1.9,3.2,4.4,3.8,7l4.2-12.4c1.9-5.6,7.2-9.4,13.2-9.4h16.2c6,0,11.4,3.9,13.2,9.6l3,9.2c1.1-1.4,2.3-2.8,3.6-4.1,9.7-9.7,22.6-15,36.2-15s11.2.9,16.4,2.7c2.4-2,5.5-3.1,8.7-3.1h19c5.4,0,10.3,3.1,12.6,8l1.7,3.7,1.2-2.9c2.1-5.3,7.2-8.7,12.9-8.7V43.2H96.9V0H.2l-.2,264.3Z"/>
    </clipPath>
  </defs>
  <g id="Layer_11" data-name="Layer_1" class="st7">
    <rect class="st4" y="367.7" width="358.9" height="34.3"/>
    <g>
      <path class="st6" d="M93.9,396.2c-1.8-.8-3.2-1.8-4.3-3.1l1.3-1.5c.9,1.1,2.1,2,3.7,2.7s3.2,1.1,5,1.1,4.1-.4,5.5-1.3c1.3-.9,2-2,2-3.5s-.2-1.7-.7-2.3c-.5-.6-1.3-1.1-2.4-1.6-1.1-.4-2.7-.8-4.6-1.2-2.2-.4-3.9-.9-5.3-1.5-1.3-.6-2.3-1.3-2.9-2.2-.6-.9-.9-1.9-.9-3.2s.4-2.4,1.1-3.3c.8-1,1.8-1.7,3.2-2.3,1.4-.5,3-.8,4.8-.8s3.3.3,4.8.9,2.8,1.4,3.8,2.5l-1.2,1.5c-.9-.9-2-1.7-3.3-2.2s-2.7-.8-4.2-.8-3.8.4-5.1,1.3c-1.3.8-1.9,1.9-1.9,3.3s.2,1.6.7,2.2,1.2,1.1,2.3,1.6,2.5.8,4.3,1.2c2.4.4,4.3.9,5.7,1.5,1.4.6,2.4,1.3,3,2.2s.9,1.9.9,3.2-.4,2.6-1.2,3.6-1.9,1.8-3.3,2.4-3.1.8-5.1.8-3.8-.4-5.6-1.2h-.1Z"/>
      <path class="st6" d="M163.2,397l-2.6-5.9h-14.4l-2.6,5.9h-2.2l10.9-24.3h2.4l10.9,24.3h-2.4,0ZM153.4,374.9l-6.3,14.3h12.7l-6.3-14.3h0Z"/>
      <path class="st6" d="M216.3,374.7h-14.1v9.6h13.3v1.9h-13.3v10.8h-2v-24.3h16.1v2Z"/>
      <path class="st6" d="M254.1,395h15.2v2h-17.3v-24.3h16.9v1.9h-14.8v9.1h14.2v1.9h-14.2v9.3h0Z"/>
    </g>
    <g class="st8">
      <g>
        <g>
          <polygon class="st3" points="316.4 323.5 30.7 320.5 31.4 54.2 318.4 54.6 316.4 323.5"/>
          <polygon class="st4" points="316.4 323.5 308.2 323.4 309 55.2 319.2 54.6 316.4 323.5"/>
          <polygon class="st4" points="38.9 312.1 30.7 312 33.4 45.8 41.6 43.2 38.9 312.1"/>
          <polygon class="st4" points="318.3 55.9 83.3 53.5 83.2 61.7 318.3 64.1 318.3 55.9"/>
          <rect class="st3" x="58" y="79.8" width="233" height="215"/>
          <circle class="st1" cx="175.2" cy="194.2" r="10.6"/>
          <g>
            <g>
              <path class="st6" d="M317.5,51.7H52.6l-4.9,4.9h267.4v262.7H32.8V88c-.7-.6-1.5-1.2-2.2-1.8-.9-.8-1.8-1.6-2.7-2.4v237.9c0,1.4,1.1,2.4,2.5,2.4h287.2c1.3,0,2.4-1.1,2.4-2.4V54.2c0-1.3-1.1-2.4-2.4-2.4h-.1ZM32.8,56.6h6.5c-1.7-1.6-3.5-3.2-5.3-4.9h-3.7c-1.4,0-2.5,1.1-2.5,2.4v2.9c1.6,1.5,3.3,3,4.9,4.5v-5h0Z"/>
              <polygon class="st4" points="289 267 290.9 78.4 280.9 78.4 280.4 267 289 267"/>
              <path class="st6" d="M290.2,77.7H57.7c-1.3,0-2.4,1.1-2.4,2.4v215.7c0,1.4,1.1,2.4,2.4,2.4h232.5c1.4,0,2.4-1.1,2.4-2.4V80.1c0-1.4-1.1-2.4-2.4-2.4ZM287.8,293.4H60.1V82.6h227.7v210.8Z"/>
              <path class="st4" d="M75.5,56.6c-.7,4.3-2,8.7-3.9,12.6-5.7,11.4-15.2,19.2-26,25.8-.7.4-2.3.4-3.1,0-3.3-2.2-6.7-4.4-9.8-6.9-.7-.6-1.5-1.2-2.2-1.8-.9-.8-1.8-1.6-2.7-2.4-10.6-9.9-16.7-21.9-15.4-37.2.4-4.5,0-9.1,0-13.7s0-2,0-2.9c.4-.2.6-.4.8-.4h3.2c9.4.5,18.2-1.4,26.3-6.4.7-.4,2.2-.3,3,.2,7.2,4.3,15,6.4,23.5,6.1h5.5c-7.5,7.4-14.9,14.8-22.3,22.2l-4.9,4.9-4,4c-1.4-1.3-2.9-2.7-4.3-4-1.7-1.6-3.5-3.2-5.3-4.9-2.7-2.5-5.4-5-8.2-7.6-2,2.2-3.7,4-5.5,5.9,2.5,2.3,5,4.7,7.5,6.9,1.6,1.5,3.3,3,4.9,4.5,3.8,3.5,7.5,6.9,11.2,10.4.4-.2.7-.2.8-.3,5.1-5,10.2-10,15.3-15h15.6Z"/>
              <g>
                <path class="st6" d="M175.1,254.7c-32.7,0-59.3-26.6-59.3-59.3s26.6-59.3,59.3-59.3,59.3,26.6,59.3,59.3-26.6,59.3-59.3,59.3ZM175.1,140.9c-30,0-54.4,24.4-54.4,54.4s24.4,54.4,54.4,54.4,54.4-24.4,54.4-54.4-24.4-54.4-54.4-54.4Z"/>
                <circle class="st4" cx="175.2" cy="194.2" r="43.7"/>
                <path class="st6" d="M175.1,225.3c-16.5,0-30-13.4-30-30s13.4-30,30-30,30,13.4,30,30-13.4,30-30,30ZM175.1,170.3c-13.8,0-25.1,11.2-25.1,25.1s11.2,25.1,25.1,25.1,25.1-11.2,25.1-25.1-11.2-25.1-25.1-25.1Z"/>
                <path class="st6" d="M102.6,197.2c-1.3,0-2.4-1.1-2.5-2.4,0-1.4,1.1-2.5,2.4-2.5l145.2-.7h0c1.4,0,2.4,1.1,2.5,2.4,0,1.4-1.1,2.5-2.4,2.5l-145.2.7h0Z"/>
                <path class="st6" d="M175.6,269.5c-1.4,0-2.4-1.1-2.5-2.4l-.7-145.2c0-1.4,1.1-2.5,2.4-2.5h0c1.4,0,2.4,1.1,2.5,2.4l.7,145.2c0,1.4-1.1,2.5-2.4,2.5h0Z"/>
                <path class="st6" d="M226.8,248c-.6,0-1.2-.2-1.7-.7l-103.2-102.2c-1-.9-1-2.5,0-3.5.9-1,2.5-1,3.5,0l103.1,102.2c1,.9,1,2.5,0,3.5s-1.1.7-1.7.7Z"/>
                <path class="st6" d="M124.1,248.4c-.6,0-1.2-.2-1.7-.7-1-.9-1-2.5,0-3.5l102.2-103.1c.9-1,2.5-1,3.5,0s1,2.5,0,3.5l-102.2,103.2c-.5.5-1.1.7-1.7.7h-.1Z"/>
              </g>
              <path class="st6" d="M289.1,337.1h-33.7c-.9,0-1.8-.5-2.2-1.4l-6.1-12.2c-.4-.8-.3-1.7.1-2.4.4-.7,1.2-1.2,2.1-1.2h44.8c.8,0,1.6.4,2,1.1.5.7.5,1.5.2,2.3l-5,12.2c-.4.9-1.3,1.5-2.3,1.5h0ZM256.9,332.2h30.6l3-7.3h-37.2l3.6,7.3Z"/>
              <path class="st6" d="M95.6,337.1h-33.7c-.9,0-1.8-.5-2.2-1.4l-6.1-12.2c-.4-.8-.3-1.7,0-2.4.4-.7,1.2-1.2,2.1-1.2h44.8c.8,0,1.6.4,2,1.1.5.7.5,1.5.2,2.3l-5,12.2c-.4.9-1.3,1.5-2.3,1.5h.2ZM63.4,332.2h30.6l3-7.3h-37.2s3.6,7.3,3.6,7.3Z"/>
            </g>
            <g>
              <polygon class="st6" points="283 275.5 278.1 275.5 278.1 270.6 278 249.5 278 244.6 278.1 244.6 282.9 244.6 282.9 249.5 283 270.6 283 275.5"/>
              <path class="st6" d="M292.7,244.6v4.9h-14.6v-4.9h14.6Z"/>
              <polygon class="st6" points="292.7 270.5 292.7 275.4 287.8 275.4 283 275.5 278.1 275.5 278.1 270.6 283 270.6 287.8 270.6 292.7 270.5"/>
              <polygon class="st6" points="283 131.4 278.1 131.4 278.1 126.5 278 105.4 278 100.5 278.1 100.5 282.9 100.5 282.9 105.4 283 126.5 283 131.4"/>
              <path class="st6" d="M292.7,100.5v4.9h-14.6v-4.9h14.6Z"/>
              <polygon class="st6" points="292.7 126.4 292.7 131.3 287.8 131.3 283 131.4 278.1 131.4 278.1 126.5 283 126.5 287.8 126.5 292.7 126.4"/>
            </g>
          </g>
        </g>
        <path class="st4" d="M74.9,29.6c-7.5,7.4-14.9,14.8-22.3,22.2h-18.6c-2.7-2.5-5.4-5-8.2-7.6-2,2.2-3.7,4-5.5,5.9,2.5,2.3,5,4.7,7.5,6.9v26.8c-10.6-9.9-16.7-21.9-15.4-37.2.4-4.5,0-9.1,0-13.7s0-2,0-2.9c.4-.2.6-.4.8-.4h3.2c9.4.5,18.2-1.4,26.3-6.4.7-.4,2.2-.3,3,.2,7.2,4.3,15,6.4,23.5,6.1h5.7Z"/>
        <path class="st6" d="M78.5,53.4h5.5c0,1.1,0,2.2-.2,3.3-.3,3.6-1,7.2-2.3,10.6-4.3,12-12.4,21.2-22.4,28.9-4.1,3.2-8.7,5.8-13.2,8.5-.8.5-2.3.6-3.1.2-3.5-1.9-6.9-3.9-10-6.1-1.7-1.2-3.3-2.4-4.9-3.6-8.3-6.6-15.1-14.7-19.8-24.9-2.5-5.6-3.7-11.5-3.7-17.6v-31.2c14.2.4,28.3,1.2,39.7-9.5,11.4,10.6,25.5,10.1,39.9,9.5v10.8c0,.6-.6,1.3-1.1,1.8-5.9,5.9-11.9,11.8-17.8,17.6l-4.9,4.9c-5.1,5-10.2,10-15.3,15,0,0-.4.2-.8.3-3.7-3.4-7.5-6.9-11.2-10.4-1.6-1.5-3.3-3-4.9-4.5-2.5-2.3-5-4.6-7.5-6.9,1.8-1.9,3.5-3.8,5.5-5.9,2.8,2.5,5.5,5.1,8.2,7.6,1.8,1.6,3.5,3.3,5.3,4.9,1.5,1.3,2.9,2.7,4.3,4l4-4,4.9-4.9c7.4-7.4,14.8-14.8,22.3-22.2h-5.5c-8.5.3-16.2-1.8-23.5-6.1-.8-.5-2.3-.7-3-.2-8.1,5-16.9,6.8-26.3,6.4h-3.2c-.2,0-.4.2-.8.4v2.9c0,4.6.3,9.2,0,13.7-1.2,15.3,4.8,27.3,15.4,37.2.9.8,1.8,1.6,2.7,2.4.7.6,1.4,1.2,2.2,1.8,3.2,2.5,6.5,4.6,9.8,6.9.7.5,2.3.6,3.1,0,10.7-6.5,20.3-14.4,26-25.8,1.9-3.9,3.2-8.3,3.9-12.6v-.4h0c.9-1,1.9-1.9,2.8-2.9h0Z"/>
        <circle class="st6" cx="175.2" cy="194.2" r="12.7"/>
        <circle class="st1" cx="175.2" cy="194.2" r="10.6"/>
        <circle class="st2" cx="175.2" cy="194.2" r="7.9"/>
      </g>
    </g>
    <g>
      <path class="st6" d="M44.3,352.8H0v-74.5h17.1v57.4h27.2v17.1h0Z"/>
      <path class="st6" d="M97.5,295.5h-30.6v11.3h24.8v17.1h-24.8v11.8h30.6v17.1h-47.8v-74.3h47.8c0-.1,0,17,0,17Z"/>
      <path class="st6" d="M168.1,311.1v41.7h-17.2v-1.8c-3.8,1.3-7.8,1.9-11.8,1.9-9.6,0-19.2-3.7-26.5-11-14.4-14.4-14.5-38.3,0-52.8,14.6-14.6,38.3-14.6,52.9,0l-12.2,12.2c-7.8-7.8-20.8-7.8-28.6,0-7.9,7.9-7.9,20.7,0,28.6,7,7,18.3,7.8,26.1,2.1v-3.8h-14.9v-17.1h32.2Z"/>
      <path class="st6" d="M218.8,352.8l-2.9-9h-23.4l-3,9h-18.2l25.4-74.4h16.2l24,74.4h-18.1ZM198.4,326.6h12.1l-5.9-18.1-6.2,18.1h0Z"/>
      <path class="st6" d="M242.6,341.8c-7-7.2-10.9-16.3-10.9-26.4s3.9-19.4,10.9-26.4c14.6-14.6,38.1-14.6,52.7,0l-12.1,12.1c-7.9-7.9-20.7-7.8-28.5,0-3.8,4-5.9,8.9-5.9,14.3s2.1,10.2,5.9,14.2c7.8,7.8,20.6,7.9,28.5,0l12.1,12.2c-7.3,7.3-16.6,10.9-26.4,10.9s-19.1-3.6-26.4-10.9h0Z"/>
      <path class="st6" d="M310.9,352.8l8.6-21.1-25.5-54h19l15.3,32.3,13.1-32.3h18.6l-30.5,75h-18.6Z"/>
    </g>
  </g>
  <g id="Layer_1_copy">
    <g>
      <g>
        <rect class="st5" x="110.3" y="74.8" width="249" height="23.8"/>
        <g>
          <path class="st6" d="M175.4,94.6c-1.2-.6-2.2-1.2-3-2.2l.9-1c.6.8,1.5,1.4,2.6,1.9s2.2.8,3.5.8,2.8-.3,3.8-.9c.9-.6,1.4-1.4,1.4-2.4s-.1-1.2-.5-1.6c-.3-.4-.9-.8-1.7-1.1-.8-.3-1.9-.6-3.2-.8-1.5-.3-2.7-.6-3.7-1-.9-.4-1.6-.9-2-1.5s-.6-1.3-.6-2.2.3-1.7.8-2.3c.6-.7,1.2-1.2,2.2-1.6,1-.3,2.1-.6,3.3-.6s2.3.2,3.3.6,1.9,1,2.6,1.7l-.8,1c-.6-.6-1.4-1.2-2.3-1.5s-1.9-.6-2.9-.6-2.6.3-3.5.9-1.3,1.3-1.3,2.3.1,1.1.5,1.5.8.8,1.6,1.1,1.7.6,3,.8c1.7.3,3,.6,4,1s1.7.9,2.1,1.5.6,1.3.6,2.2-.3,1.8-.8,2.5-1.3,1.2-2.3,1.7-2.2.6-3.5.6-2.6-.3-3.9-.8h-.2Z"/>
          <path class="st6" d="M223.5,95.1l-1.8-4.1h-10l-1.8,4.1h-1.5l7.6-16.9h1.7l7.6,16.9h-1.8ZM216.7,79.8l-4.4,9.9h8.8l-4.4-9.9h0Z"/>
          <path class="st6" d="M260.3,79.7h-9.8v6.7h9.2v1.3h-9.2v7.5h-1.4v-16.9h11.2v1.4Z"/>
          <path class="st6" d="M286.6,93.7h10.5v1.4h-12v-16.9h11.7v1.3h-10.3v6.3h9.8v1.3h-9.8v6.5h0Z"/>
        </g>
        <g>
          <path class="st6" d="M141,64.5h-30.7V12.8h11.9v39.8h18.9v11.9h-.1Z"/>
          <path class="st6" d="M177.9,24.7h-21.2v7.8h17.2v11.9h-17.2v8.2h21.2v11.9h-33.2V12.9h33.2v11.8Z"/>
          <path class="st6" d="M226.9,35.5v28.9h-11.9v-1.2c-2.6.9-5.4,1.3-8.2,1.3-6.7,0-13.3-2.6-18.4-7.6-10-10-10.1-26.6,0-36.6,10.1-10.1,26.6-10.1,36.7,0l-8.5,8.5c-5.4-5.4-14.4-5.4-19.8,0-5.5,5.5-5.5,14.4,0,19.8,4.9,4.9,12.7,5.4,18.1,1.5v-2.6h-10.3v-11.9h22.3,0Z"/>
          <path class="st6" d="M262.1,64.5l-2-6.2h-16.2l-2.1,6.2h-12.6l17.6-51.6h11.2l16.6,51.6h-12.6.1ZM247.9,46.3h8.4l-4.1-12.6-4.3,12.6h0Z"/>
          <path class="st6" d="M278.6,56.8c-4.9-5-7.6-11.3-7.6-18.3s2.7-13.5,7.6-18.3c10.1-10.1,26.4-10.1,36.6,0l-8.4,8.4c-5.5-5.5-14.4-5.4-19.8,0-2.6,2.8-4.1,6.2-4.1,9.9s1.5,7.1,4.1,9.8c5.4,5.4,14.3,5.5,19.8,0l8.4,8.5c-5.1,5.1-11.5,7.6-18.3,7.6s-13.2-2.5-18.3-7.6h0Z"/>
          <path class="st6" d="M325.9,64.5l6-14.6-17.7-37.5h13.2l10.6,22.4,9.1-22.4h12.9l-21.2,52h-12.9Z"/>
        </g>
      </g>
      <g>
        <g>
          <polygon class="st3" points="98.8 98.6 8.3 97.6 8.5 13.4 99.4 13.5 98.8 98.6"/>
          <polygon class="st4" points="98.8 98.6 96.2 98.6 96.4 13.7 99.6 13.5 98.8 98.6"/>
          <polygon class="st4" points="10.9 95 8.3 95 9.2 10.7 11.8 9.9 10.9 95"/>
          <polygon class="st4" points="99.4 13.9 25 13.1 24.9 15.7 99.4 16.5 99.4 13.9"/>
          <rect class="st3" x="17" y="21.5" width="73.8" height="68.1"/>
          <circle class="st1" cx="54.1" cy="57.7" r="3.4"/>
          <g>
            <g>
              <path class="st6" d="M99.1,12.6H15.3l-1.6,1.6h84.6v83.2H9V24.1c-.2-.2-.5-.4-.7-.6-.3-.3-.6-.5-.9-.8v75.3c0,.4.3.8.8.8h90.9c.4,0,.8-.3.8-.8V13.4c0-.4-.3-.8-.8-.8h0ZM9,14.1h2.1c-.5-.5-1.1-1-1.7-1.6h-1.2c-.4,0-.8.3-.8.8v.9c.5.5,1,.9,1.6,1.4v-1.6h0Z"/>
              <polygon class="st4" points="90.1 80.7 90.7 21 87.5 21 87.4 80.7 90.1 80.7"/>
              <path class="st6" d="M90.5,20.8H16.9c-.4,0-.8.3-.8.8v68.3c0,.4.3.8.8.8h73.6c.4,0,.8-.3.8-.8V21.6c0-.4-.3-.8-.8-.8ZM89.7,89.1H17.6V22.3h72.1v66.7h0Z"/>
              <path class="st4" d="M22.5,14.1c-.2,1.4-.6,2.8-1.2,4-1.8,3.6-4.8,6.1-8.2,8.2-.2.1-.7.1-1,0-1-.7-2.1-1.4-3.1-2.2-.2-.2-.5-.4-.7-.6-.3-.3-.6-.5-.9-.8-3.4-3.1-5.3-6.9-4.9-11.8,0-1.4,0-2.9,0-4.3s0-.6,0-.9c0,0,.2,0,.3,0h1c3,.2,5.8-.4,8.3-2,.2,0,.7,0,.9,0,2.3,1.4,4.7,2,7.4,1.9h1.7c-2.4,2.3-4.7,4.7-7.1,7l-1.6,1.6-1.3,1.3c-.4-.4-.9-.9-1.4-1.3-.5-.5-1.1-1-1.7-1.6-.9-.8-1.7-1.6-2.6-2.4-.6.7-1.2,1.3-1.7,1.9.8.7,1.6,1.5,2.4,2.2.5.5,1,.9,1.6,1.4,1.2,1.1,2.4,2.2,3.5,3.3h.3c1.6-1.6,3.2-3.2,4.8-4.7h5.2Z"/>
              <g>
                <path class="st6" d="M54,76.8c-10.4,0-18.8-8.4-18.8-18.8s8.4-18.8,18.8-18.8,18.8,8.4,18.8,18.8-8.4,18.8-18.8,18.8ZM54,40.8c-9.5,0-17.2,7.7-17.2,17.2s7.7,17.2,17.2,17.2,17.2-7.7,17.2-17.2-7.7-17.2-17.2-17.2Z"/>
                <circle class="st4" cx="54.1" cy="57.7" r="13.8"/>
                <path class="st6" d="M54,67.5c-5.2,0-9.5-4.2-9.5-9.5s4.2-9.5,9.5-9.5,9.5,4.2,9.5,9.5-4.2,9.5-9.5,9.5ZM54,50.1c-4.4,0-7.9,3.5-7.9,7.9s3.5,7.9,7.9,7.9,7.9-3.5,7.9-7.9-3.5-7.9-7.9-7.9Z"/>
                <path class="st6" d="M31.1,58.6c-.4,0-.8-.3-.8-.8s.3-.8.8-.8l46-.2h0c.4,0,.8.3.8.8s-.3.8-.8.8l-46,.2h0Z"/>
                <path class="st6" d="M54.2,81.5c-.4,0-.8-.3-.8-.8l-.2-46c0-.4.3-.8.8-.8h0c.4,0,.8.3.8.8l.2,46c0,.4-.3.8-.8.8h0Z"/>
                <path class="st6" d="M70.4,74.7c-.2,0-.4,0-.5-.2l-32.7-32.3c-.3-.3-.3-.8,0-1.1s.8-.3,1.1,0l32.6,32.3c.3.3.3.8,0,1.1s-.3.2-.5.2Z"/>
                <path class="st6" d="M37.9,74.8c-.2,0-.4,0-.5-.2-.3-.3-.3-.8,0-1.1l32.3-32.6c.3-.3.8-.3,1.1,0s.3.8,0,1.1l-32.3,32.7c-.2.2-.3.2-.5.2h0Z"/>
              </g>
              <path class="st6" d="M90.1,102.9h-10.7c-.3,0-.6-.2-.7-.4l-1.9-3.9c0-.3,0-.5,0-.8,0-.2.4-.4.7-.4h14.2c.3,0,.5,0,.6.3.2.2.2.5,0,.7l-1.6,3.9c0,.3-.4.5-.7.5h0ZM79.9,101.4h9.7l.9-2.3h-11.8l1.1,2.3h.1Z"/>
              <path class="st6" d="M28.9,102.9h-10.7c-.3,0-.6-.2-.7-.4l-1.9-3.9c-.1-.3,0-.5,0-.8.1-.2.4-.4.7-.4h14.2c.3,0,.5,0,.6.3.2.2.2.5,0,.7l-1.6,3.9c-.1.3-.4.5-.7.5h.1ZM18.7,101.4h9.7l.9-2.3h-11.8l1.1,2.3h.1Z"/>
            </g>
            <g>
              <polygon class="st6" points="88.2 83.4 86.6 83.4 86.6 81.9 86.6 75.2 86.6 73.6 86.6 73.6 88.2 73.6 88.2 75.2 88.2 81.9 88.2 83.4"/>
              <path class="st6" d="M91.3,73.6v1.6h-4.6v-1.6h4.6Z"/>
              <polygon class="st6" points="91.3 81.8 91.3 83.4 89.7 83.4 88.2 83.4 86.6 83.4 86.6 81.9 88.2 81.9 89.7 81.9 91.3 81.8"/>
              <polygon class="st6" points="88.2 37.8 86.6 37.8 86.6 36.2 86.6 29.6 86.6 28 86.6 28 88.2 28 88.2 29.6 88.2 36.2 88.2 37.8"/>
              <path class="st6" d="M91.3,28v1.6h-4.6v-1.6h4.6Z"/>
              <polygon class="st6" points="91.3 36.2 91.3 37.8 89.7 37.8 88.2 37.8 86.6 37.8 86.6 36.2 88.2 36.2 89.7 36.2 91.3 36.2"/>
            </g>
          </g>
        </g>
        <path class="st4" d="M22.3,5.6c-2.4,2.3-4.7,4.7-7.1,7h-5.9c-.9-.8-1.7-1.6-2.6-2.4-.6.7-1.2,1.3-1.7,1.9.8.7,1.6,1.5,2.4,2.2v8.5c-3.4-3.1-5.3-6.9-4.9-11.8,0-1.4,0-2.9,0-4.3s0-.6,0-.9c0,0,.2,0,.3,0h1c3,.2,5.8-.4,8.3-2,.2,0,.7,0,.9,0,2.3,1.4,4.7,2,7.4,1.9h1.9Z"/>
        <path class="st6" d="M23.5,13.1h1.7v1c0,1.1-.3,2.3-.7,3.4-1.4,3.8-3.9,6.7-7.1,9.1-1.3,1-2.8,1.8-4.2,2.7-.3.2-.7.2-1,0-1.1-.6-2.2-1.2-3.2-1.9-.5-.4-1-.8-1.6-1.1-2.6-2.1-4.8-4.7-6.3-7.9C.3,16.6-.1,14.8-.1,12.8V3c4.5,0,9,.4,12.6-3,3.6,3.4,8.1,3.2,12.6,3v3.4c0,.2-.2.4-.3.6-1.9,1.9-3.8,3.7-5.6,5.6l-1.6,1.6c-1.6,1.6-3.2,3.2-4.8,4.7h-.3c-1.2-1.1-2.4-2.2-3.5-3.3-.5-.5-1-.9-1.6-1.4-.8-.7-1.6-1.5-2.4-2.2.6-.6,1.1-1.2,1.7-1.9.9.8,1.7,1.6,2.6,2.4.6.5,1.1,1,1.7,1.6.5.4.9.9,1.4,1.3l1.3-1.3,1.6-1.6c2.3-2.3,4.7-4.7,7.1-7h-1.7c-2.7,0-5.1-.6-7.4-1.9-.3-.2-.7-.2-.9,0-2.6,1.6-5.3,2.2-8.3,2h-1s0,0-.3,0v5.2c-.4,4.8,1.5,8.6,4.9,11.8.3.3.6.5.9.8.2.2.4.4.7.6,1,.8,2.1,1.5,3.1,2.2.2.2.7.2,1,0,3.4-2.1,6.4-4.6,8.2-8.2s1-2.6,1.2-4h0c.3-.4.6-.7.9-1h-.2Z"/>
        <circle class="st6" cx="54.1" cy="57.7" r="4"/>
        <circle class="st1" cx="54.1" cy="57.7" r="3.4"/>
        <circle class="st2" cx="54.1" cy="57.7" r="2.5"/>
      </g>
    </g>
  </g>
</svg>