<?xml version="1.0" encoding="utf-8"?>
<!-- Generator: Adobe Illustrator 26.0.1, SVG Export Plug-In . SVG Version: 6.00 Build 0)  -->
<svg version="1.1" id="Layer_1" xmlns="http://www.w3.org/2000/svg" xmlns:xlink="http://www.w3.org/1999/xlink" x="0px" y="0px"
	 viewBox="0 0 1000 1000" style="enable-background:new 0 0 1000 1000;" xml:space="preserve">
<style type="text/css">
	.st0{fill:#92D6E9;}
	.st1{fill:#212552;}
	.st2{clip-path:url(#SVGID_00000059276884925117172900000001129195645748990376_);}
	.st3{fill:#CBEDF9;}
	.st4{fill:#EDC75D;}
	.st5{fill:#FFEA9E;}
</style>
<g>
	<rect x="285.71" y="677.67" class="st0" width="427.25" height="40.78"/>
	<g>
		<g>
			<path class="st1" d="M397.44,711.61c-2.13-0.92-3.84-2.15-5.14-3.69l1.53-1.73c1.02,1.32,2.47,2.4,4.37,3.24
				c1.9,0.84,3.86,1.26,5.9,1.26c2.75,0,4.92-0.51,6.52-1.53c1.59-1.02,2.39-2.41,2.39-4.17c0-1.1-0.29-2.01-0.87-2.72
				c-0.58-0.72-1.53-1.33-2.85-1.86c-1.32-0.52-3.16-1-5.53-1.44c-2.61-0.47-4.7-1.05-6.27-1.75c-1.57-0.7-2.71-1.57-3.42-2.6
				c-0.72-1.03-1.07-2.32-1.07-3.86c0-1.49,0.45-2.8,1.36-3.96c0.91-1.15,2.19-2.06,3.84-2.7c1.65-0.65,3.55-0.97,5.69-0.97
				c2.06,0,3.98,0.34,5.76,1.03c1.77,0.69,3.29,1.68,4.56,2.97l-1.4,1.73c-1.1-1.13-2.43-1.99-3.98-2.6
				c-1.55-0.61-3.21-0.91-4.97-0.91c-2.53,0-4.56,0.5-6.1,1.51c-1.54,1-2.31,2.32-2.31,3.94c0,1.05,0.28,1.93,0.85,2.66
				c0.56,0.73,1.47,1.35,2.72,1.86c1.25,0.51,2.96,0.97,5.14,1.38c2.86,0.52,5.11,1.13,6.75,1.81c1.64,0.69,2.81,1.54,3.53,2.56
				c0.72,1.02,1.07,2.3,1.07,3.84c0,1.62-0.46,3.05-1.38,4.27s-2.24,2.17-3.96,2.83c-1.72,0.66-3.73,0.99-6.04,0.99
				C401.79,712.99,399.57,712.53,397.44,711.61z"/>
			<path class="st1" d="M480.01,712.5l-3.09-7.01h-17.16l-3.14,7.01h-2.64l12.95-28.88h2.8l12.95,28.88H480.01z M468.34,686.18
				l-7.55,17h15.1L468.34,686.18z"/>
			<path class="st1" d="M543.21,685.97h-16.75v11.39h15.84v2.31h-15.84v12.83h-2.43v-28.88h19.18V685.97z"/>
			<path class="st1" d="M588.22,710.15h18.15v2.35h-20.59v-28.88h20.09v2.31h-17.66v10.81h16.87v2.31h-16.87V710.15z"/>
		</g>
	</g>
	<g>
		<defs>
			<path id="SVGID_1_" d="M285.71,554.58h20.4c6.99,0,12.96,4.34,15.39,10.46c5.14-5.99,16.43-10.21,23.32-10.22
				c0,0,56.89-0.12,56.9-0.12c4.39,0,8.6,1.74,11.71,4.84c1.57,1.57,2.79,3.41,3.62,5.42c10.04-6.83,21.88-10.5,34.29-10.5
				c16.34,0,31.69,6.35,43.23,17.89c2.3,2.3,3.85,5.21,4.5,8.34l5.03-14.77c2.29-6.71,8.59-11.23,15.69-11.23h19.32
				c7.19,0,13.56,4.64,15.77,11.48l3.55,11c1.35-1.67,2.79-3.29,4.33-4.83c11.54-11.54,26.85-17.89,43.11-17.89
				c6.75,0,13.33,1.11,19.55,3.22c2.91-2.34,6.55-3.7,10.39-3.7h22.58c6.41,0,12.24,3.69,14.98,9.48l2.06,4.35l1.4-3.47
				c2.53-6.26,8.61-10.36,15.36-10.36V291.38H401.1v-51.45H285.89L285.71,554.58z"/>
		</defs>
		<clipPath id="SVGID_00000040549115989988842520000008796166716092953525_">
			<use xlink:href="#SVGID_1_"  style="overflow:visible;"/>
		</clipPath>
		<g style="clip-path:url(#SVGID_00000040549115989988842520000008796166716092953525_);">
			<g>
				<polygon class="st3" points="662.38,625 322.22,621.5 323.08,304.5 664.75,304.88 				"/>
				<polygon class="st0" points="662.38,625 652.64,624.9 653.55,305.64 665.65,304.89 				"/>
				<polygon class="st0" points="331.98,611.5 322.25,611.39 325.44,294.42 335.26,291.38 				"/>
				<polygon class="st0" points="664.63,306.46 384.87,303.64 384.77,313.37 664.63,316.23 				"/>
				<rect x="354.72" y="334.9" class="st3" width="277.38" height="255.98"/>
				<circle class="st4" cx="494.27" cy="471.15" r="12.67"/>
				<g>
					<g>
						<path class="st1" d="M663.72,301.52H348.34c-1.94,1.93-3.9,3.87-5.85,5.82h318.32v312.74H324.77V344.73
							c-0.87-0.68-1.75-1.37-2.59-2.09c-1.11-0.95-2.2-1.9-3.24-2.88v283.23c0,1.61,1.31,2.91,2.92,2.91h341.85
							c1.6,0,2.91-1.3,2.91-2.91V304.43C666.62,302.84,665.31,301.52,663.72,301.52z M324.77,307.34h7.77
							c-2.08-1.93-4.19-3.86-6.3-5.82h-4.38c-1.61,0-2.92,1.31-2.92,2.91v3.43c1.96,1.81,3.9,3.6,5.83,5.39V307.34z"/>
						<polygon class="st0" points="629.7,557.84 632,333.31 620.11,333.31 619.47,557.84 						"/>
						<path class="st1" d="M631.21,332.41H354.36c-1.6,0-2.91,1.3-2.91,2.91v256.79c0,1.61,1.31,2.91,2.91,2.91h276.84
							c1.61,0,2.91-1.3,2.91-2.91V335.32C634.11,333.71,632.82,332.41,631.21,332.41z M628.3,589.2H357.27V338.23H628.3V589.2z"/>
						<path class="st0" d="M375.64,307.34c-0.89,5.14-2.34,10.38-4.64,15.05c-6.73,13.57-18.11,22.91-30.9,30.67
							c-0.89,0.53-2.77,0.45-3.65-0.14c-3.95-2.67-7.92-5.27-11.68-8.2c-0.87-0.68-1.75-1.37-2.59-2.09
							c-1.11-0.95-2.2-1.9-3.24-2.88c-12.59-11.8-19.83-26.06-18.36-44.26c0.44-5.41,0.05-10.89,0.08-16.35
							c0-1.21,0.12-2.41,0.17-3.47c0.51-0.24,0.72-0.44,0.93-0.45c1.27-0.06,2.52-0.17,3.77-0.11c11.21,0.57,21.69-1.61,31.29-7.58
							c0.84-0.53,2.65-0.3,3.6,0.26c8.62,5.14,17.88,7.67,27.96,7.32c2.31-0.09,4.61-0.02,6.51-0.02
							c-8.87,8.83-17.7,17.61-26.55,26.41c-1.94,1.93-3.9,3.87-5.85,5.82c-1.6,1.58-3.19,3.16-4.79,4.76
							c-1.7-1.58-3.42-3.16-5.15-4.76c-2.08-1.93-4.19-3.86-6.3-5.82c-3.22-2.97-6.46-5.97-9.75-8.99
							c-2.37,2.58-4.35,4.75-6.49,7.07c3,2.79,5.98,5.54,8.93,8.27c1.96,1.81,3.9,3.6,5.83,5.39c4.49,4.16,8.93,8.27,13.36,12.37
							c0.53-0.21,0.81-0.24,0.96-0.39c6.06-5.97,12.11-11.93,18.17-17.9H375.64z"/>
						<g>
							<g>
								<path class="st1" d="M494.11,543.13c-38.95,0-70.64-31.69-70.64-70.64c0-38.95,31.69-70.64,70.64-70.64
									c38.95,0,70.64,31.69,70.64,70.64C564.75,511.44,533.06,543.13,494.11,543.13z M494.11,407.69
									c-35.73,0-64.8,29.07-64.8,64.81c0,35.73,29.07,64.8,64.8,64.8s64.81-29.07,64.81-64.8
									C558.92,436.76,529.85,407.69,494.11,407.69z"/>
								<g>
									<circle class="st0" cx="494.27" cy="471.15" r="52.07"/>
								</g>
								<path class="st1" d="M494.11,508.16c-19.66,0-35.66-16-35.66-35.66c0-19.66,16-35.66,35.66-35.66
									c19.66,0,35.66,16,35.66,35.66C529.78,492.16,513.78,508.16,494.11,508.16z M494.11,442.67
									c-16.45,0-29.83,13.38-29.83,29.83c0,16.45,13.38,29.83,29.83,29.83s29.83-13.38,29.83-29.83
									C523.94,456.05,510.56,442.67,494.11,442.67z"/>
								<path class="st1" d="M407.87,474.69c-1.6,0-2.91-1.3-2.92-2.9c-0.01-1.61,1.29-2.92,2.9-2.93l172.86-0.79c0,0,0.01,0,0.01,0
									c1.61,0,2.91,1.3,2.92,2.9c0.01,1.61-1.29,2.92-2.9,2.93l-172.86,0.79C407.88,474.69,407.87,474.69,407.87,474.69z"/>
								<path class="st1" d="M494.7,560.73c-1.61,0-2.91-1.3-2.92-2.9l-0.79-172.86c-0.01-1.61,1.29-2.92,2.9-2.93
									c0,0,0.01,0,0.01,0c1.61,0,2.91,1.3,2.92,2.9l0.79,172.86c0.01,1.61-1.29,2.92-2.9,2.93
									C494.7,560.73,494.7,560.73,494.7,560.73z"/>
								<path class="st1" d="M555.7,535.13c-0.74,0-1.48-0.28-2.05-0.85L430.85,412.61c-1.14-1.13-1.15-2.98-0.02-4.12
									c1.13-1.14,2.98-1.15,4.12-0.02l122.79,121.68c1.14,1.13,1.15,2.98,0.02,4.12C557.2,534.84,556.45,535.13,555.7,535.13z"/>
								<path class="st1" d="M433.46,535.69c-0.74,0-1.48-0.28-2.05-0.85c-1.14-1.13-1.15-2.98-0.02-4.12l121.68-122.79
									c1.13-1.14,2.98-1.15,4.12-0.02c1.14,1.13,1.15,2.98,0.02,4.12L435.54,534.83C434.97,535.4,434.21,535.69,433.46,535.69z"/>
							</g>
						</g>
						<path class="st1" d="M629.9,641.21h-40.13c-1.1,0-2.11-0.62-2.6-1.61l-7.24-14.47c-0.45-0.9-0.4-1.97,0.13-2.83
							c0.53-0.86,1.47-1.38,2.48-1.38h53.28c0.97,0,1.88,0.48,2.42,1.29c0.54,0.8,0.64,1.83,0.28,2.72l-5.92,14.47
							C632.15,640.5,631.09,641.21,629.9,641.21z M591.58,635.39h36.37l3.54-8.65h-44.24L591.58,635.39z"/>
						<path class="st1" d="M399.52,641.21h-40.13c-1.1,0-2.11-0.62-2.6-1.61l-7.24-14.47c-0.45-0.9-0.4-1.97,0.13-2.83
							c0.53-0.86,1.47-1.38,2.48-1.38h53.28c0.97,0,1.88,0.48,2.42,1.29c0.54,0.8,0.64,1.83,0.28,2.72l-5.92,14.47
							C401.76,640.5,400.7,641.21,399.52,641.21z M361.19,635.39h36.37l3.54-8.65h-44.24L361.19,635.39z"/>
					</g>
					<g>
						<g>
							<polygon class="st1" points="622.65,567.86 616.83,567.89 616.8,562.07 616.7,536.99 616.67,531.17 616.76,531.17 
								622.48,531.14 622.51,536.97 622.63,562.04 							"/>
							<path class="st1" d="M634.11,531.1v5.83l-5.82,0.02l-5.79,0.03l-5.72,0.03h-0.02c-0.03,0-0.05,0-0.08-0.02l-0.03-5.82h0.09
								l5.72-0.03l5.82-0.02L634.11,531.1z"/>
							<polygon class="st1" points="634.11,562 634.11,567.81 628.3,567.84 622.65,567.86 616.83,567.89 616.8,562.07 
								622.63,562.04 628.3,562.03 							"/>
							<polygon class="st1" points="622.65,396.3 616.83,396.33 616.8,390.52 616.7,365.43 616.67,359.62 616.76,359.62 
								622.48,359.59 622.51,365.42 622.63,390.49 							"/>
							<path class="st1" d="M634.11,359.54v5.83l-5.82,0.02l-5.79,0.03l-5.72,0.03h-0.02c-0.03,0-0.05,0-0.08-0.02l-0.03-5.82h0.09
								l5.72-0.03l5.82-0.02L634.11,359.54z"/>
							<polygon class="st1" points="634.11,390.44 634.11,396.25 628.3,396.28 622.65,396.3 616.83,396.33 616.8,390.51 
								622.63,390.48 628.3,390.47 							"/>
						</g>
					</g>
				</g>
			</g>
			<path class="st0" d="M374.88,275.12c-8.87,8.83-17.7,17.61-26.55,26.41h-22.09c-3.22-2.97-6.46-5.97-9.75-8.99
				c-2.37,2.58-4.35,4.75-6.49,7.07c3,2.79,5.98,5.54,8.93,8.27v31.89c-12.59-11.8-19.83-26.06-18.36-44.26
				c0.44-5.41,0.05-10.89,0.08-16.35c0-1.21,0.12-2.41,0.17-3.47c0.51-0.24,0.72-0.44,0.93-0.45c1.27-0.06,2.52-0.17,3.77-0.11
				c11.21,0.57,21.69-1.61,31.29-7.58c0.84-0.53,2.65-0.3,3.6,0.26c8.62,5.14,17.88,7.67,27.96,7.32
				C370.68,275.04,372.98,275.12,374.88,275.12z"/>
			<path class="st1" d="M379.12,303.45h6.6c-0.03,1.31-0.11,2.61-0.21,3.89c-0.38,4.34-1.21,8.53-2.7,12.64
				c-5.17,14.27-14.79,25.22-26.64,34.36c-4.91,3.8-10.38,6.93-15.7,10.17c-0.96,0.59-2.79,0.77-3.74,0.26
				c-4.17-2.24-8.17-4.66-11.96-7.28c-2-1.37-3.95-2.8-5.83-4.32c-9.88-7.86-18.02-17.48-23.56-29.59
				c-3.03-6.63-4.41-13.65-4.4-20.94c0.03-12.13,0.02-24.27,0.02-37.09c16.96,0.44,33.69,1.46,47.26-11.36
				c13.56,12.59,30.3,11.98,47.47,11.31c0,4.61,0.06,8.75-0.06,12.91c-0.03,0.72-0.71,1.55-1.28,2.12
				c-7.08,7.01-14.15,14-21.23,20.99c-1.96,1.93-3.93,3.87-5.89,5.82c-6.06,5.97-12.11,11.93-18.17,17.9
				c-0.15,0.15-0.44,0.18-0.96,0.39c-4.43-4.1-8.87-8.21-13.36-12.37c-1.93-1.79-3.87-3.59-5.83-5.39
				c-2.95-2.73-5.94-5.48-8.93-8.27c2.14-2.32,4.13-4.49,6.49-7.07c3.28,3.03,6.52,6.03,9.75,8.99c2.11,1.96,4.22,3.89,6.3,5.82
				c1.73,1.6,3.45,3.18,5.15,4.76c1.6-1.6,3.19-3.18,4.79-4.76c1.94-1.94,3.9-3.89,5.85-5.82c8.84-8.8,17.67-17.58,26.55-26.41
				c-1.9,0-4.2-0.08-6.51,0.02c-10.08,0.35-19.34-2.18-27.96-7.32c-0.95-0.56-2.76-0.78-3.6-0.26c-9.6,5.97-20.08,8.15-31.29,7.58
				c-1.25-0.06-2.5,0.05-3.77,0.11c-0.21,0.02-0.42,0.21-0.93,0.45c-0.05,1.05-0.17,2.26-0.17,3.47
				c-0.03,5.45,0.36,10.94-0.08,16.35c-1.46,18.2,5.77,32.47,18.36,44.26c1.04,0.98,2.12,1.93,3.24,2.88
				c0.84,0.72,1.72,1.42,2.59,2.09c3.75,2.92,7.73,5.53,11.68,8.2c0.87,0.59,2.76,0.66,3.65,0.14c12.79-7.76,24.16-17.1,30.9-30.67
				c2.31-4.67,3.75-9.91,4.64-15.05c0.05-0.15,0.06-0.32,0.09-0.47c0-0.02,0-0.02,0-0.02C376.86,305.71,377.99,304.58,379.12,303.45
				z"/>
			<circle class="st1" cx="494.27" cy="471.15" r="15.06"/>
			<circle class="st4" cx="494.27" cy="471.15" r="12.67"/>
			<circle class="st5" cx="494.27" cy="471.15" r="9.46"/>
		</g>
	</g>
	<g>
		<path class="st1" d="M338.47,659.89h-52.76v-88.74h20.4v68.33h32.36V659.89z"/>
		<path class="st1" d="M401.73,591.67h-36.46v13.4h29.58v20.4h-29.58v14.01h36.46v20.4h-56.87v-88.5l56.87-0.12V591.67z"/>
		<path class="st1" d="M485.88,610.27v49.62h-20.52v-2.17c-4.47,1.57-9.3,2.29-14.01,2.29c-11.47,0-22.82-4.35-31.51-13.04
			c-17.14-17.14-17.26-45.64,0-62.9c17.39-17.39,45.64-17.39,63.02,0l-14.49,14.49c-9.3-9.3-24.75-9.3-34.05,0
			c-9.42,9.42-9.42,24.63,0,34.05c8.33,8.33,21.73,9.3,31.03,2.53v-4.47h-17.75v-20.4H485.88z"/>
		<path class="st1" d="M546.24,659.89l-3.5-10.75h-27.89l-3.62,10.75h-21.61l30.18-88.62h19.32l28.61,88.62H546.24z M521.85,628.74
			h14.37l-7-21.49L521.85,628.74z"/>
		<path class="st1" d="M574.48,646.85c-8.33-8.57-12.92-19.44-12.92-31.39c0-12.07,4.59-23.06,12.92-31.39
			c17.39-17.39,45.4-17.39,62.78,0l-14.37,14.37c-9.42-9.42-24.63-9.3-33.93,0c-4.47,4.71-7,10.62-7,17.02s2.53,12.19,7,16.9
			c9.3,9.3,24.51,9.42,33.93,0l14.37,14.49c-8.69,8.69-19.8,12.92-31.39,12.92C594.4,659.77,583.18,655.54,574.48,646.85z"/>
		<path class="st1" d="M655.85,659.89l10.26-25.11l-30.3-64.23h22.58l18.23,38.51l15.57-38.51h22.09l-36.34,89.34H655.85z"/>
	</g>
	<g>
		<g>
			<path class="st1" d="M297.69,733.56l-4.95,7.3v4.95h-2.03v-4.95l-4.81-7.3h2.43l3.4,5.36l3.5-5.36H297.69z"/>
			<path class="st1" d="M304.24,745.28c-0.96-0.53-1.7-1.28-2.22-2.25c-0.53-0.97-0.79-2.08-0.79-3.34s0.26-2.38,0.79-3.34
				c0.53-0.97,1.27-1.72,2.22-2.25c0.96-0.53,2.06-0.8,3.31-0.8c1.24,0,2.33,0.27,3.29,0.8c0.96,0.53,1.7,1.28,2.22,2.25
				c0.53,0.97,0.79,2.08,0.79,3.34s-0.26,2.38-0.79,3.34c-0.53,0.97-1.27,1.72-2.22,2.25c-0.96,0.53-2.05,0.8-3.29,0.8
				C306.3,746.07,305.19,745.81,304.24,745.28z M309.75,743.61c0.64-0.38,1.14-0.91,1.5-1.58c0.36-0.68,0.53-1.46,0.53-2.35
				s-0.18-1.67-0.53-2.35c-0.36-0.68-0.86-1.2-1.5-1.58c-0.64-0.38-1.38-0.57-2.21-0.57c-0.84,0-1.58,0.19-2.22,0.57
				c-0.64,0.38-1.14,0.91-1.5,1.58c-0.36,0.68-0.53,1.46-0.53,2.35s0.18,1.67,0.53,2.35c0.36,0.68,0.86,1.21,1.5,1.58
				c0.64,0.38,1.38,0.57,2.22,0.57C308.37,744.18,309.11,743.99,309.75,743.61z"/>
			<path class="st1" d="M321.94,745.41c-0.79-0.43-1.4-1.05-1.83-1.85c-0.43-0.8-0.64-1.74-0.64-2.83v-7.18h2.03v7.14
				c0,1.06,0.29,1.91,0.88,2.53c0.58,0.62,1.37,0.94,2.35,0.94c0.98,0,1.76-0.31,2.35-0.94c0.58-0.62,0.88-1.47,0.88-2.53v-7.14
				h2.03v7.18c0,1.09-0.21,2.03-0.64,2.83c-0.43,0.8-1.04,1.42-1.83,1.85c-0.79,0.43-1.72,0.65-2.78,0.65
				S322.73,745.84,321.94,745.41z"/>
			<path class="st1" d="M340.86,741.63h-2.49v4.18h-2.05v-12.26h5.74c0.86,0,1.63,0.17,2.28,0.5s1.17,0.81,1.52,1.42
				c0.36,0.61,0.53,1.32,0.53,2.13c0,1.02-0.28,1.87-0.85,2.56c-0.57,0.69-1.34,1.14-2.32,1.35l3.73,4.31h-2.56L340.86,741.63z
				 M343.76,736.02c-0.41-0.39-0.98-0.58-1.71-0.58h-3.69v4.31h3.69c0.72,0,1.29-0.19,1.71-0.57c0.41-0.38,0.62-0.91,0.62-1.58
				C344.38,736.93,344.18,736.41,343.76,736.02z"/>
			<path class="st1" d="M368.2,734.32c0.94,0.51,1.67,1.23,2.18,2.15c0.51,0.93,0.77,2,0.77,3.21s-0.26,2.29-0.77,3.21
				c-0.51,0.93-1.24,1.65-2.18,2.15c-0.94,0.51-2.02,0.76-3.23,0.76h-4.69v-12.26h4.69C366.19,733.56,367.26,733.81,368.2,734.32z
				 M367.12,743.39c0.62-0.36,1.11-0.85,1.45-1.5c0.34-0.64,0.52-1.38,0.52-2.21c0-0.83-0.17-1.56-0.52-2.21
				c-0.34-0.64-0.83-1.14-1.45-1.5c-0.62-0.36-1.34-0.53-2.14-0.53h-2.64v8.47h2.64C365.78,743.92,366.49,743.74,367.12,743.39z"/>
			<path class="st1" d="M376.93,733.56h2.05v12.26h-2.05V733.56z"/>
			<path class="st1" d="M396.09,738.84v5.2c-0.68,0.68-1.43,1.18-2.25,1.52c-0.82,0.33-1.74,0.5-2.74,0.5
				c-1.26,0-2.37-0.26-3.33-0.79c-0.96-0.52-1.7-1.27-2.22-2.23c-0.53-0.96-0.79-2.08-0.79-3.35c0-1.24,0.27-2.34,0.82-3.3
				c0.55-0.96,1.31-1.72,2.29-2.26c0.98-0.54,2.1-0.81,3.36-0.81c0.88,0,1.7,0.16,2.48,0.48c0.78,0.32,1.47,0.79,2.07,1.41
				l-1.31,1.31c-0.41-0.41-0.9-0.73-1.49-0.96c-0.58-0.23-1.17-0.35-1.77-0.35c-0.86,0-1.63,0.19-2.29,0.56
				c-0.67,0.37-1.18,0.9-1.56,1.58c-0.37,0.68-0.56,1.46-0.56,2.35c0,0.9,0.18,1.69,0.53,2.36c0.35,0.68,0.85,1.2,1.5,1.57
				c0.65,0.37,1.4,0.55,2.27,0.55c1.21,0,2.25-0.33,3.1-1v-2.52h-3.43v-1.8H396.09z"/>
			<path class="st1" d="M402.02,733.56h2.05v12.26h-2.05V733.56z"/>
			<path class="st1" d="M419.37,733.56v1.89h-3.97v10.37h-2.05v-10.37h-3.97v-1.89H419.37z"/>
			<path class="st1" d="M433.22,745.81l-1.12-2.54h-6.58l-1.12,2.54h-2.21l5.5-12.26h2.28l5.48,12.26H433.22z M428.81,735.62
				l-2.5,5.8h5.01L428.81,735.62z"/>
			<path class="st1" d="M440.57,733.56h2.05v10.35h6.46v1.91h-8.51V733.56z"/>
			<path class="st1" d="M463.49,745.61c-0.9-0.3-1.7-0.72-2.42-1.27l1.07-1.54c0.51,0.43,1.14,0.77,1.86,1.02
				c0.73,0.24,1.47,0.37,2.23,0.37c0.89,0,1.6-0.17,2.14-0.5c0.54-0.33,0.81-0.77,0.81-1.32c0-0.5-0.25-0.9-0.74-1.19
				s-1.27-0.51-2.33-0.65c-1.67-0.23-2.88-0.64-3.62-1.23c-0.75-0.58-1.12-1.41-1.12-2.49c0-0.68,0.2-1.28,0.6-1.81
				c0.4-0.53,0.96-0.95,1.68-1.24c0.72-0.3,1.54-0.45,2.46-0.45c0.82,0,1.62,0.13,2.42,0.4c0.79,0.27,1.5,0.64,2.12,1.12l-1.03,1.45
				c-0.5-0.39-1.06-0.68-1.66-0.88c-0.61-0.2-1.21-0.3-1.82-0.3c-0.81,0-1.47,0.16-1.98,0.48c-0.51,0.32-0.77,0.73-0.77,1.23
				c0,0.49,0.23,0.88,0.7,1.17c0.47,0.29,1.21,0.51,2.24,0.67c1.74,0.26,2.99,0.67,3.76,1.23c0.77,0.57,1.16,1.37,1.16,2.41
				c0,0.75-0.21,1.4-0.62,1.97s-1,1-1.76,1.31c-0.76,0.31-1.63,0.46-2.63,0.46C465.31,746.06,464.39,745.91,463.49,745.61z"/>
			<path class="st1" d="M486.31,745.81l-1.12-2.54h-6.58l-1.12,2.54h-2.21l5.5-12.26h2.28l5.48,12.26H486.31z M481.89,735.62
				l-2.5,5.8h5.01L481.89,735.62z"/>
			<path class="st1" d="M502.34,735.45h-6.64v3.78h6.3v1.86h-6.3v4.73h-2.05v-12.26h8.68V735.45z"/>
			<path class="st1" d="M510.14,743.94h7.09v1.87h-9.12v-12.26h9.02v1.86h-6.99v3.27h6.69v1.82h-6.69V743.94z"/>
			<path class="st1" d="M531.97,733.56v1.89h-3.97v10.37h-2.05v-10.37h-3.97v-1.89H531.97z"/>
			<path class="st1" d="M547.71,733.56l-4.95,7.3v4.95h-2.03v-4.95l-4.81-7.3h2.43l3.4,5.36l3.5-5.36H547.71z"/>
			<path class="st1" d="M568.15,734.32c0.94,0.51,1.67,1.23,2.18,2.15c0.51,0.93,0.77,2,0.77,3.21s-0.26,2.29-0.77,3.21
				c-0.51,0.93-1.24,1.65-2.18,2.15c-0.94,0.51-2.02,0.76-3.23,0.76h-4.69v-12.26h4.69C566.13,733.56,567.21,733.81,568.15,734.32z
				 M567.06,743.39c0.62-0.36,1.11-0.85,1.45-1.5c0.34-0.64,0.52-1.38,0.52-2.21c0-0.83-0.17-1.56-0.52-2.21
				c-0.34-0.64-0.83-1.14-1.45-1.5c-0.62-0.36-1.34-0.53-2.14-0.53h-2.64v8.47h2.64C565.73,743.92,566.44,743.74,567.06,743.39z"/>
			<path class="st1" d="M578.91,743.94H586v1.87h-9.12v-12.26h9.02v1.86h-6.99v3.27h6.69v1.82h-6.69V743.94z"/>
			<path class="st1" d="M600.01,734.09c0.67,0.36,1.18,0.86,1.55,1.5c0.37,0.64,0.55,1.39,0.55,2.24c0,0.85-0.18,1.6-0.55,2.24
				c-0.37,0.64-0.88,1.14-1.55,1.5c-0.66,0.36-1.44,0.53-2.33,0.53h-3.66v3.71h-2.05v-12.26h5.71
				C598.56,733.56,599.34,733.73,600.01,734.09z M599.39,739.59c0.45-0.44,0.68-1.02,0.68-1.76c0-0.72-0.23-1.3-0.68-1.74
				c-0.46-0.44-1.06-0.66-1.82-0.66H594v4.82h3.57C598.33,740.24,598.94,740.02,599.39,739.59z"/>
			<path class="st1" d="M609.86,745.28c-0.96-0.53-1.7-1.28-2.22-2.25c-0.53-0.97-0.79-2.08-0.79-3.34s0.26-2.38,0.79-3.34
				c0.52-0.97,1.27-1.72,2.22-2.25c0.96-0.53,2.06-0.8,3.31-0.8c1.24,0,2.33,0.27,3.29,0.8c0.96,0.53,1.7,1.28,2.22,2.25
				c0.52,0.97,0.79,2.08,0.79,3.34s-0.26,2.38-0.79,3.34c-0.53,0.97-1.27,1.72-2.22,2.25c-0.96,0.53-2.05,0.8-3.29,0.8
				C611.92,746.07,610.82,745.81,609.86,745.28z M615.38,743.61c0.64-0.38,1.14-0.91,1.5-1.58c0.36-0.68,0.53-1.46,0.53-2.35
				s-0.18-1.67-0.53-2.35c-0.36-0.68-0.86-1.2-1.5-1.58c-0.64-0.38-1.38-0.57-2.21-0.57c-0.84,0-1.58,0.19-2.22,0.57
				c-0.64,0.38-1.14,0.91-1.5,1.58c-0.36,0.68-0.53,1.46-0.53,2.35s0.18,1.67,0.53,2.35c0.36,0.68,0.85,1.21,1.5,1.58
				c0.64,0.38,1.38,0.57,2.22,0.57C614,744.18,614.74,743.99,615.38,743.61z"/>
			<path class="st1" d="M626.9,745.61c-0.9-0.3-1.7-0.72-2.42-1.27l1.07-1.54c0.51,0.43,1.13,0.77,1.86,1.02
				c0.73,0.24,1.47,0.37,2.23,0.37c0.89,0,1.6-0.17,2.14-0.5c0.54-0.33,0.81-0.77,0.81-1.32c0-0.5-0.25-0.9-0.74-1.19
				c-0.49-0.29-1.27-0.51-2.33-0.65c-1.67-0.23-2.88-0.64-3.62-1.23c-0.75-0.58-1.12-1.41-1.12-2.49c0-0.68,0.2-1.28,0.6-1.81
				c0.4-0.53,0.96-0.95,1.68-1.24c0.72-0.3,1.54-0.45,2.46-0.45c0.82,0,1.62,0.13,2.42,0.4c0.79,0.27,1.5,0.64,2.12,1.12l-1.03,1.45
				c-0.5-0.39-1.06-0.68-1.66-0.88c-0.61-0.2-1.21-0.3-1.82-0.3c-0.81,0-1.47,0.16-1.98,0.48c-0.51,0.32-0.77,0.73-0.77,1.23
				c0,0.49,0.23,0.88,0.7,1.17c0.47,0.29,1.21,0.51,2.24,0.67c1.74,0.26,2.99,0.67,3.76,1.23c0.77,0.57,1.16,1.37,1.16,2.41
				c0,0.75-0.21,1.4-0.62,1.97s-1,1-1.76,1.31c-0.76,0.31-1.63,0.46-2.63,0.46C628.71,746.06,627.8,745.91,626.9,745.61z"/>
			<path class="st1" d="M640.28,733.56h2.05v12.26h-2.05V733.56z"/>
			<path class="st1" d="M657.63,733.56v1.89h-3.97v10.37h-2.05v-10.37h-3.97v-1.89H657.63z"/>
			<path class="st1" d="M679.99,740.6c0.37,0.55,0.55,1.16,0.55,1.81c0,1.09-0.38,1.92-1.15,2.51c-0.77,0.59-1.85,0.88-3.27,0.88
				h-5.85v-12.26h5.85c1.25,0,2.23,0.29,2.95,0.86c0.72,0.57,1.08,1.37,1.08,2.38c0,0.61-0.14,1.14-0.41,1.61
				c-0.27,0.47-0.66,0.82-1.15,1.07C679.16,739.67,679.63,740.05,679.99,740.6z M672.32,735.38v3.24h3.89
				c0.61,0,1.08-0.14,1.43-0.42c0.34-0.28,0.52-0.68,0.52-1.19c0-0.5-0.17-0.9-0.52-1.19c-0.34-0.29-0.82-0.44-1.43-0.44H672.32z
				 M677.94,743.47c0.38-0.32,0.58-0.76,0.58-1.32c0-0.55-0.19-0.98-0.57-1.3c-0.38-0.32-0.9-0.47-1.57-0.47h-4.06v3.57h4.04
				C677.02,743.96,677.55,743.79,677.94,743.47z"/>
			<path class="st1" d="M688.56,745.28c-0.96-0.53-1.7-1.28-2.22-2.25c-0.53-0.97-0.79-2.08-0.79-3.34s0.26-2.38,0.79-3.34
				c0.52-0.97,1.27-1.72,2.22-2.25c0.96-0.53,2.06-0.8,3.31-0.8c1.24,0,2.33,0.27,3.29,0.8c0.96,0.53,1.7,1.28,2.22,2.25
				c0.52,0.97,0.79,2.08,0.79,3.34s-0.26,2.38-0.79,3.34c-0.53,0.97-1.27,1.72-2.22,2.25c-0.96,0.53-2.05,0.8-3.29,0.8
				C690.62,746.07,689.52,745.81,688.56,745.28z M694.08,743.61c0.64-0.38,1.14-0.91,1.5-1.58c0.36-0.68,0.53-1.46,0.53-2.35
				s-0.18-1.67-0.53-2.35c-0.36-0.68-0.86-1.2-1.5-1.58c-0.64-0.38-1.38-0.57-2.21-0.57c-0.84,0-1.58,0.19-2.22,0.57
				c-0.64,0.38-1.14,0.91-1.5,1.58c-0.36,0.68-0.53,1.46-0.53,2.35s0.18,1.67,0.53,2.35c0.36,0.68,0.85,1.21,1.5,1.58
				c0.64,0.38,1.38,0.57,2.22,0.57C692.7,744.18,693.44,743.99,694.08,743.61z"/>
			<path class="st1" d="M709.07,739.58l4.33,6.23h-2.47l-1.82-2.64l-1.38-2.08l-1.4,2.08l-1.82,2.64h-2.43l4.32-6.23l-4.15-6.02
				h2.42l1.68,2.47l1.4,2.12l1.42-2.12l1.68-2.47h2.4L709.07,739.58z"/>
		</g>
	</g>
</g>
</svg>
